<svg width="24" height="24" viewBox="0 0 24 24" fill="none" xmlns="http://www.w3.org/2000/svg">
<path d="M10.1364 10.9091C9.97964 10.9091 9.82934 10.9713 9.71853 11.0822C9.60771 11.193 9.54545 11.3433 9.54545 11.5C9.54545 11.6567 9.60771 11.807 9.71853 11.9178C9.82934 12.0287 9.97964 12.0909 10.1364 12.0909H14.8636C15.0204 12.0909 15.1707 12.0287 15.2815 11.9178C15.3923 11.807 15.4545 11.6567 15.4545 11.5C15.4545 11.3433 15.3923 11.193 15.2815 11.0822C15.1707 10.9713 15.0204 10.9091 14.8636 10.9091H10.1364Z" fill="#797FE2"/>
<path fill-rule="evenodd" clip-rule="evenodd" d="M19 11.5C19 15.0898 16.0898 18 12.5 18C8.91023 18 6 15.0898 6 11.5C6 7.91023 8.91023 5 12.5 5C16.0898 5 19 7.91023 19 11.5ZM17.8182 11.5C17.8182 12.1984 17.6806 12.8899 17.4134 13.5352C17.1461 14.1804 16.7544 14.7667 16.2605 15.2605C15.7667 15.7544 15.1804 16.1461 14.5352 16.4134C13.8899 16.6806 13.1984 16.8182 12.5 16.8182C11.8016 16.8182 11.1101 16.6806 10.4648 16.4134C9.81959 16.1461 9.23332 15.7544 8.73948 15.2605C8.24564 14.7667 7.8539 14.1804 7.58664 13.5352C7.31938 12.8899 7.18182 12.1984 7.18182 11.5C7.18182 10.0895 7.74212 8.73683 8.73948 7.73948C9.73683 6.74213 11.0895 6.18182 12.5 6.18182C13.9105 6.18182 15.2632 6.74213 16.2605 7.73948C17.2579 8.73683 17.8182 10.0895 17.8182 11.5Z" fill="#797FE2"/>
</svg>
