<svg width="24" height="24" viewBox="0 0 24 24" fill="none" xmlns="http://www.w3.org/2000/svg">
<path d="M12.0082 5C12.5571 5.00574 13.1036 5.06677 13.639 5.18165C13.7531 5.20609 13.8563 5.26414 13.9343 5.34769C14.0124 5.43123 14.0613 5.53609 14.0742 5.64761L14.2013 6.74396C14.2192 6.89862 14.2747 7.04708 14.3633 7.17738C14.4519 7.30768 14.5711 7.41618 14.7114 7.49414C14.8516 7.5721 15.009 7.61733 15.1708 7.6262C15.3326 7.63508 15.4943 7.60733 15.6429 7.54521L16.6897 7.10366C16.7961 7.05868 16.9144 7.04654 17.0282 7.06892C17.1421 7.0913 17.2459 7.1471 17.3253 7.22859C18.0819 8.0048 18.6454 8.93566 18.9733 9.95114C19.0076 10.0579 19.0066 10.1722 18.9703 10.2783C18.934 10.3845 18.8642 10.4771 18.7706 10.5435L17.842 11.2011C17.7113 11.2932 17.605 11.4136 17.5318 11.5524C17.4586 11.6913 17.4204 11.8448 17.4205 12.0004C17.4206 12.1561 17.4589 12.3095 17.5322 12.4483C17.6056 12.5871 17.7119 12.7074 17.8427 12.7993L18.7721 13.4563C18.8659 13.5227 18.9357 13.6155 18.9721 13.7217C19.0084 13.828 19.0093 13.9425 18.9748 14.0493C18.647 15.0647 18.0838 15.9955 17.3275 16.7719C17.2483 16.8534 17.1446 16.9092 17.0309 16.9317C16.9172 16.9542 16.7991 16.9423 16.6927 16.8975L15.6414 16.4545C15.493 16.3919 15.3314 16.3638 15.1695 16.3724C15.0077 16.3809 14.8502 16.426 14.7099 16.5039C14.5696 16.5818 14.4503 16.6903 14.3619 16.8207C14.2734 16.9511 14.2181 17.0996 14.2005 17.2544L14.0742 18.35C14.0614 18.4603 14.0135 18.5641 13.937 18.6473C13.8604 18.7305 13.7589 18.7889 13.6465 18.8145C12.5637 19.0618 11.4356 19.0618 10.3528 18.8145C10.2403 18.7889 10.1389 18.7305 10.0623 18.6473C9.98574 18.5641 9.93781 18.4603 9.92507 18.35L9.79796 17.2558C9.77956 17.1018 9.72382 16.954 9.63522 16.8244C9.54661 16.6947 9.42759 16.5868 9.28772 16.5094C9.14784 16.4319 8.991 16.3869 8.82978 16.3782C8.66855 16.3694 8.50743 16.397 8.35934 16.4589L7.30729 16.9011C7.20095 16.9459 7.08277 16.9578 6.96906 16.9353C6.85535 16.9128 6.75172 16.8569 6.67247 16.7755C5.91583 15.9983 5.35262 15.0664 5.02524 14.0501C4.99069 13.9432 4.99163 13.8287 5.02795 13.7225C5.06426 13.6162 5.13413 13.5234 5.22787 13.457L6.15804 12.7993C6.28878 12.7073 6.3951 12.587 6.46838 12.4482C6.54167 12.3093 6.57986 12.1559 6.57986 12.0002C6.57986 11.8446 6.54167 11.6911 6.46838 11.5523C6.3951 11.4135 6.28878 11.2932 6.15804 11.2011L5.22862 10.5449C5.13475 10.4786 5.06472 10.3859 5.02828 10.2796C4.99183 10.1733 4.99077 10.0587 5.02524 9.95186C5.35335 8.93631 5.91707 8.00544 6.67397 7.22931C6.75331 7.14796 6.85698 7.09226 6.97068 7.06989C7.08438 7.04751 7.20252 7.05956 7.30878 7.10438L8.3556 7.54593C8.50441 7.60787 8.66627 7.63544 8.82819 7.62641C8.99011 7.61738 9.14757 7.57201 9.28791 7.49395C9.42826 7.41588 9.54758 7.3073 9.63629 7.17692C9.725 7.04655 9.78063 6.89801 9.7987 6.74324L9.92582 5.64761C9.93865 5.53586 9.98758 5.43077 10.0658 5.34708C10.1439 5.26338 10.2474 5.20529 10.3617 5.18093C10.8986 5.06677 11.4459 5.00646 12.0082 5ZM12.0082 6.07696C11.6688 6.08075 11.3301 6.10883 10.9951 6.16096L10.9136 6.86242C10.8762 7.1852 10.7604 7.49503 10.5754 7.76692C10.3905 8.03881 10.1415 8.26514 9.84873 8.42767C9.55592 8.59019 9.22741 8.68435 8.88973 8.70254C8.55205 8.72074 8.21464 8.66247 7.90472 8.53243L7.23326 8.24955C6.80556 8.74791 6.46514 9.30976 6.22533 9.91309L6.82202 10.3345C7.09435 10.5267 7.31577 10.7777 7.46838 11.0673C7.62099 11.3568 7.70051 11.6768 7.70051 12.0013C7.70051 12.3258 7.62099 12.6458 7.46838 12.9354C7.31577 13.2249 7.09435 13.4759 6.82202 13.6681L6.22533 14.0903C6.4646 14.6948 6.80482 15.2577 7.23252 15.7574L7.90995 15.4724C8.21913 15.3427 8.55568 15.2846 8.89252 15.3027C9.22935 15.3208 9.55706 15.4146 9.84926 15.5765C10.1415 15.7384 10.39 15.9639 10.5748 16.2349C10.7597 16.5059 10.8757 16.8147 10.9136 17.1366L10.9943 17.8431C11.6598 17.9508 12.3395 17.9508 13.0049 17.8431L13.0857 17.1366C13.1227 16.8141 13.2382 16.5044 13.423 16.2326C13.6077 15.9609 13.8565 15.7347 14.1491 15.5724C14.4418 15.4101 14.7701 15.3162 15.1075 15.2983C15.445 15.2804 15.7821 15.3391 16.0915 15.4695L16.7675 15.7538C17.1949 15.2551 17.5351 14.693 17.7747 14.0895L17.178 13.6674C16.9055 13.4753 16.684 13.2243 16.5313 12.9347C16.3785 12.6452 16.299 12.3252 16.299 12.0006C16.299 11.676 16.3785 11.356 16.5313 11.0664C16.684 10.7769 16.9055 10.5259 17.178 10.3338L17.7732 9.91237C17.5334 9.30904 17.1929 8.74719 16.7652 8.24883L16.0953 8.53099C15.7855 8.6612 15.4482 8.71964 15.1106 8.70159C14.773 8.68355 14.4446 8.58953 14.1518 8.42713C13.859 8.26472 13.6101 8.03848 13.4252 7.76668C13.2402 7.49487 13.1245 7.18512 13.0872 6.86242L13.0049 6.16168C12.6753 6.10994 12.3422 6.08186 12.0082 6.07768V6.07696ZM11.9985 9.30784C12.7422 9.30784 13.4554 9.5915 13.9812 10.0964C14.507 10.6013 14.8025 11.2862 14.8025 12.0002C14.8025 12.7143 14.507 13.3991 13.9812 13.9041C13.4554 14.409 12.7422 14.6926 11.9985 14.6926C11.2548 14.6926 10.5416 14.409 10.0158 13.9041C9.48996 13.3991 9.19454 12.7143 9.19454 12.0002C9.19454 11.2862 9.48996 10.6013 10.0158 10.0964C10.5416 9.5915 11.2548 9.30784 11.9985 9.30784V9.30784ZM11.9985 10.3848C11.5523 10.3848 11.1244 10.555 10.8089 10.8579C10.4934 11.1609 10.3161 11.5718 10.3161 12.0002C10.3161 12.4287 10.4934 12.8396 10.8089 13.1425C11.1244 13.4455 11.5523 13.6157 11.9985 13.6157C12.4447 13.6157 12.8726 13.4455 13.1881 13.1425C13.5036 12.8396 13.6809 12.4287 13.6809 12.0002C13.6809 11.5718 13.5036 11.1609 13.1881 10.8579C12.8726 10.555 12.4447 10.3848 11.9985 10.3848Z" fill="#797FE2"/>
</svg>
